<mxfile host="65bd71144e">
    <diagram id="KSGf075R0hTIlhzQJ1op" name="第 1 页">
        <mxGraphModel dx="1468" dy="636" grid="1" gridSize="10" guides="1" tooltips="1" connect="1" arrows="1" fold="1" page="1" pageScale="1" pageWidth="827" pageHeight="1169" math="0" shadow="0">
            <root>
                <mxCell id="0"/>
                <mxCell id="1" parent="0"/>
                <mxCell id="59" value="" style="group;fontColor=#CC6600;strokeColor=#CC6600;rounded=0;" vertex="1" connectable="0" parent="1">
                    <mxGeometry x="-112" y="400" width="300" height="142" as="geometry"/>
                </mxCell>
                <mxCell id="38" value="" style="rounded=0;whiteSpace=wrap;html=1;" vertex="1" parent="59">
                    <mxGeometry width="300" height="142" as="geometry"/>
                </mxCell>
                <mxCell id="56" value="AddKnowType:func" style="text;html=1;strokeColor=none;fillColor=none;align=center;verticalAlign=middle;whiteSpace=wrap;rounded=0;fontSize=20;" vertex="1" parent="59">
                    <mxGeometry x="125.67567567567568" y="77.68235294117648" width="48.64864864864865" height="25.058823529411764" as="geometry"/>
                </mxCell>
                <mxCell id="53" value="&lt;font style=&quot;font-size: 24px&quot;&gt;Scheme&lt;/font&gt;" style="text;html=1;strokeColor=none;fillColor=none;align=center;verticalAlign=middle;whiteSpace=wrap;rounded=0;fontColor=#CC6600;" vertex="1" parent="59">
                    <mxGeometry x="117.56756756756758" y="15.035294117647059" width="48.64864864864865" height="25.058823529411764" as="geometry"/>
                </mxCell>
                <mxCell id="64" value="00" style="group;fontSize=14;" vertex="1" connectable="0" parent="1">
                    <mxGeometry x="270" y="400" width="300" height="160" as="geometry"/>
                </mxCell>
                <mxCell id="65" value="" style="rounded=0;whiteSpace=wrap;html=1;" vertex="1" parent="64">
                    <mxGeometry width="300" height="142" as="geometry"/>
                </mxCell>
                <mxCell id="66" value="AddToScheme:func" style="text;html=1;strokeColor=none;fillColor=none;align=center;verticalAlign=middle;whiteSpace=wrap;rounded=0;fontSize=20;" vertex="1" parent="64">
                    <mxGeometry x="57.16" y="104.68" width="174.32" height="25.06" as="geometry"/>
                </mxCell>
                <mxCell id="67" value="&lt;font style=&quot;font-size: 24px&quot; color=&quot;#cc6600&quot;&gt;API Group Register&lt;/font&gt;" style="text;html=1;strokeColor=none;fillColor=none;align=center;verticalAlign=middle;whiteSpace=wrap;rounded=0;" vertex="1" parent="64">
                    <mxGeometry x="30" y="8" width="260" height="25.06" as="geometry"/>
                </mxCell>
                <mxCell id="75" value="addConvertFuncs:func" style="text;html=1;strokeColor=none;fillColor=none;align=center;verticalAlign=middle;whiteSpace=wrap;rounded=0;fontSize=14;" vertex="1" parent="64">
                    <mxGeometry x="118.99567567567567" y="33.06235294117653" width="48.64864864864865" height="25.05882352941176" as="geometry"/>
                </mxCell>
                <mxCell id="76" value="addDefaultFuncs:func" style="text;html=1;strokeColor=none;fillColor=none;align=center;verticalAlign=middle;whiteSpace=wrap;rounded=0;fontSize=14;" vertex="1" parent="64">
                    <mxGeometry x="119.99567567567567" y="56.47235294117653" width="48.64864864864865" height="25.05882352941176" as="geometry"/>
                </mxCell>
                <mxCell id="78" value="addKnownFuncs:func" style="text;html=1;strokeColor=none;fillColor=none;align=center;verticalAlign=middle;whiteSpace=wrap;rounded=0;fontSize=14;" vertex="1" parent="64">
                    <mxGeometry x="118.99567567567567" y="79.62235294117653" width="48.64864864864865" height="25.05882352941176" as="geometry"/>
                </mxCell>
                <mxCell id="80" value="" style="shape=curlyBracket;whiteSpace=wrap;html=1;rounded=1;fontSize=14;" vertex="1" parent="64">
                    <mxGeometry x="48" y="43" width="20" height="52" as="geometry"/>
                </mxCell>
                <mxCell id="81" value="" style="shape=curlyBracket;whiteSpace=wrap;html=1;rounded=1;flipH=1;fontSize=14;" vertex="1" parent="64">
                    <mxGeometry x="220" y="43" width="20" height="50" as="geometry"/>
                </mxCell>
                <mxCell id="68" value="" style="group" vertex="1" connectable="0" parent="1">
                    <mxGeometry x="689" y="400" width="350" height="142" as="geometry"/>
                </mxCell>
                <mxCell id="69" value="" style="rounded=0;whiteSpace=wrap;html=1;" vertex="1" parent="68">
                    <mxGeometry width="300" height="142" as="geometry"/>
                </mxCell>
                <mxCell id="70" value="AddToScheme:func" style="text;html=1;strokeColor=none;fillColor=none;align=center;verticalAlign=middle;whiteSpace=wrap;rounded=0;fontSize=20;" vertex="1" parent="68">
                    <mxGeometry x="58.92" y="77.68" width="182.16" height="25.06" as="geometry"/>
                </mxCell>
                <mxCell id="71" value="&lt;font style=&quot;font-size: 24px&quot; color=&quot;#cc6600&quot;&gt;SchemeBuilder:func[]&lt;/font&gt;" style="text;html=1;strokeColor=none;fillColor=none;align=center;verticalAlign=middle;whiteSpace=wrap;rounded=0;" vertex="1" parent="68">
                    <mxGeometry x="22.43" y="20" width="255.14" height="25.06" as="geometry"/>
                </mxCell>
                <mxCell id="82" style="edgeStyle=none;html=1;fontSize=14;" edge="1" parent="1" source="80">
                    <mxGeometry relative="1" as="geometry">
                        <mxPoint x="130" y="490" as="targetPoint"/>
                        <Array as="points">
                            <mxPoint x="130" y="490"/>
                        </Array>
                    </mxGeometry>
                </mxCell>
                <mxCell id="85" value="call" style="edgeLabel;html=1;align=center;verticalAlign=middle;resizable=0;points=[];fontSize=14;fontColor=#000000;" vertex="1" connectable="0" parent="82">
                    <mxGeometry x="-0.1725" y="1" relative="1" as="geometry">
                        <mxPoint as="offset"/>
                    </mxGeometry>
                </mxCell>
                <mxCell id="83" style="edgeStyle=none;html=1;entryX=0;entryY=0.5;entryDx=0;entryDy=0;fontSize=14;entryPerimeter=0;" edge="1" parent="1" source="81" target="70">
                    <mxGeometry relative="1" as="geometry"/>
                </mxCell>
                <mxCell id="86" value="append to" style="edgeLabel;html=1;align=center;verticalAlign=middle;resizable=0;points=[];fontSize=14;fontColor=#000000;" vertex="1" connectable="0" parent="83">
                    <mxGeometry x="0.1073" relative="1" as="geometry">
                        <mxPoint as="offset"/>
                    </mxGeometry>
                </mxCell>
                <mxCell id="88" value="" style="endArrow=classic;startArrow=classic;html=1;fontSize=14;fontColor=#000000;entryX=0.467;entryY=0.951;entryDx=0;entryDy=0;exitX=1;exitY=0.5;exitDx=0;exitDy=0;entryPerimeter=0;" edge="1" parent="1" source="66" target="70">
                    <mxGeometry width="50" height="50" relative="1" as="geometry">
                        <mxPoint x="600" y="570" as="sourcePoint"/>
                        <mxPoint x="650" y="520" as="targetPoint"/>
                        <Array as="points">
                            <mxPoint x="833" y="517"/>
                        </Array>
                    </mxGeometry>
                </mxCell>
                <mxCell id="90" value="&lt;span style=&quot;color: rgba(0 , 0 , 0 , 0) ; font-family: monospace ; font-size: 0px ; background-color: rgb(248 , 249 , 250)&quot;&gt;%3CmxGraphModel%3E%3Croot%3E%3CmxCell%20id%3D%220%22%2F%3E%3CmxCell%20id%3D%221%22%20parent%3D%220%22%2F%3E%3CmxCell%20id%3D%222%22%20value%3D%22refrence%22%20style%3D%22text%3Bhtml%3D1%3Balign%3Dcenter%3BverticalAlign%3Dmiddle%3Bresizable%3D0%3Bpoints%3D%5B%5D%3Bautosize%3D1%3BstrokeColor%3Dnone%3BfillColor%3Dnone%3BfontSize%3D14%3BfontColor%3D%23000000%3B%22%20vertex%3D%221%22%20parent%3D%221%22%3E%3CmxGeometry%20x%3D%22610%22%20y%3D%22500%22%20width%3D%2270%22%20height%3D%2220%22%20as%3D%22geometry%22%2F%3E%3C%2FmxCell%3E%3C%2Froot%3E%3C%2FmxGraphModel%3Eref&lt;/span&gt;" style="edgeLabel;html=1;align=center;verticalAlign=middle;resizable=0;points=[];fontSize=14;fontColor=#000000;" vertex="1" connectable="0" parent="88">
                    <mxGeometry x="-0.1953" y="-2" relative="1" as="geometry">
                        <mxPoint as="offset"/>
                    </mxGeometry>
                </mxCell>
                <mxCell id="91" value="refrence" style="edgeLabel;html=1;align=center;verticalAlign=middle;resizable=0;points=[];fontSize=14;fontColor=#000000;" vertex="1" connectable="0" parent="88">
                    <mxGeometry x="-0.235" y="1" relative="1" as="geometry">
                        <mxPoint as="offset"/>
                    </mxGeometry>
                </mxCell>
                <mxCell id="92" value="Product" style="text;strokeColor=none;fillColor=none;html=1;fontSize=18;fontStyle=0;verticalAlign=middle;align=center;rounded=0;fontColor=#000000;rotation=30;strokeWidth=0;" vertex="1" parent="1">
                    <mxGeometry x="147" y="377" width="92" height="30" as="geometry"/>
                </mxCell>
                <mxCell id="95" value="Director" style="text;strokeColor=none;fillColor=none;html=1;fontSize=18;fontStyle=0;verticalAlign=middle;align=center;rounded=0;fontColor=#000000;rotation=30;strokeWidth=0;" vertex="1" parent="1">
                    <mxGeometry x="530" y="377" width="92" height="30" as="geometry"/>
                </mxCell>
                <mxCell id="94" value="Builder" style="text;strokeColor=none;fillColor=none;html=1;fontSize=18;fontStyle=0;verticalAlign=middle;align=center;rounded=0;fontColor=#000000;rotation=30;strokeWidth=0;" vertex="1" parent="1">
                    <mxGeometry x="951" y="376" width="92" height="30" as="geometry"/>
                </mxCell>
                <mxCell id="96" value="" style="group;fontColor=#CC6600;strokeColor=#CC6600;rounded=0;" vertex="1" connectable="0" parent="1">
                    <mxGeometry x="-110" y="581" width="300" height="120" as="geometry"/>
                </mxCell>
                <mxCell id="97" value="" style="rounded=0;whiteSpace=wrap;html=1;" vertex="1" parent="96">
                    <mxGeometry width="300" height="120" as="geometry"/>
                </mxCell>
                <mxCell id="98" value="Scheme:var" style="text;html=1;strokeColor=none;fillColor=none;align=center;verticalAlign=middle;whiteSpace=wrap;rounded=0;fontSize=20;" vertex="1" parent="96">
                    <mxGeometry x="96.68" y="47.82816901408451" width="114.32" height="21.177464788732394" as="geometry"/>
                </mxCell>
                <mxCell id="99" value="&lt;font style=&quot;font-size: 24px&quot; color=&quot;#cc6600&quot;&gt;Installer&lt;/font&gt;" style="text;html=1;strokeColor=none;fillColor=none;align=center;verticalAlign=middle;whiteSpace=wrap;rounded=0;" vertex="1" parent="96">
                    <mxGeometry x="103.78999999999999" y="12.709859154929577" width="92.43" height="21.177464788732394" as="geometry"/>
                </mxCell>
                <mxCell id="101" value="Install:func" style="text;html=1;strokeColor=none;fillColor=none;align=center;verticalAlign=middle;whiteSpace=wrap;rounded=0;fontSize=20;" vertex="1" parent="96">
                    <mxGeometry x="96.69" y="69.0056338028169" width="114.31" height="21.177464788732394" as="geometry"/>
                </mxCell>
                <mxCell id="100" value="Client" style="text;strokeColor=none;fillColor=none;html=1;fontSize=18;fontStyle=0;verticalAlign=middle;align=center;rounded=0;fontColor=#000000;rotation=30;strokeWidth=0;" vertex="1" parent="1">
                    <mxGeometry x="156" y="560" width="92" height="30" as="geometry"/>
                </mxCell>
                <mxCell id="102" style="edgeStyle=orthogonalEdgeStyle;html=1;entryX=0.5;entryY=1;entryDx=0;entryDy=0;fontSize=18;fontColor=#CC6600;" edge="1" parent="1" source="101" target="66">
                    <mxGeometry relative="1" as="geometry"/>
                </mxCell>
                <mxCell id="103" value="call" style="edgeLabel;html=1;align=center;verticalAlign=middle;resizable=0;points=[];fontSize=18;fontColor=#000000;" vertex="1" connectable="0" parent="102">
                    <mxGeometry x="-0.0306" y="2" relative="1" as="geometry">
                        <mxPoint as="offset"/>
                    </mxGeometry>
                </mxCell>
                <mxCell id="104" style="edgeStyle=orthogonalEdgeStyle;html=1;fontSize=18;fontColor=#000000;dashed=1;" edge="1" parent="1" source="70">
                    <mxGeometry relative="1" as="geometry">
                        <mxPoint x="990" y="450" as="targetPoint"/>
                        <Array as="points">
                            <mxPoint x="1060" y="490"/>
                            <mxPoint x="1060" y="450"/>
                        </Array>
                    </mxGeometry>
                </mxCell>
                <mxCell id="105" value="Call One By One" style="edgeLabel;html=1;align=center;verticalAlign=middle;resizable=0;points=[];fontSize=18;fontColor=#000000;" vertex="1" connectable="0" parent="104">
                    <mxGeometry x="0.0221" y="1" relative="1" as="geometry">
                        <mxPoint x="8" y="-20" as="offset"/>
                    </mxGeometry>
                </mxCell>
                <mxCell id="112" value="&lt;span style=&quot;color: rgb(204 , 102 , 0) ; font-size: 24px&quot;&gt;API Group Register&lt;/span&gt;" style="rounded=0;whiteSpace=wrap;html=1;fontSize=18;fontColor=#000000;strokeColor=default;strokeWidth=0;" vertex="1" parent="1">
                    <mxGeometry x="248" y="770" width="432" height="70" as="geometry"/>
                </mxCell>
                <mxCell id="113" style="edgeStyle=orthogonalEdgeStyle;html=1;exitX=0.5;exitY=1;exitDx=0;exitDy=0;entryX=0;entryY=0.5;entryDx=0;entryDy=0;fontSize=18;fontColor=#000000;" edge="1" parent="1" source="101" target="112">
                    <mxGeometry relative="1" as="geometry"/>
                </mxCell>
            </root>
        </mxGraphModel>
    </diagram>
</mxfile>